<?xml version="1.0" standalone="no"?>
<!DOCTYPE svg PUBLIC "-//W3C//DTD SVG 20010904//EN"
 "http://www.w3.org/TR/2001/REC-SVG-20010904/DTD/svg10.dtd">
<svg version="1.0" xmlns="http://www.w3.org/2000/svg"
 width="512.000000pt" height="512.000000pt" viewBox="0 0 512.000000 512.000000"
 preserveAspectRatio="xMidYMid meet">
<metadata>
Created by potrace 1.14, written by Peter Selinger 2001-2017
</metadata>
<g transform="translate(0.000000,512.000000) scale(0.100000,-0.100000)"
fill="#000000" stroke="none">
<path d="M556 5094 c-14 -15 -26 -36 -27 -48 -1 -11 -2 -601 -3 -1311 -2
-1285 -2 -1290 -24 -1395 -12 -58 -24 -114 -26 -125 -30 -154 -135 -503 -215
-712 l-49 -128 -76 3 c-73 4 -77 3 -107 -27 -29 -30 -30 -33 -23 -88 19 -153
107 -279 244 -346 62 -31 69 -32 212 -35 l148 -3 0 -217 0 -217 82 -75 c107
-98 116 -107 248 -230 61 -58 126 -113 143 -123 30 -16 144 -17 1995 -17 2161
0 2013 -4 2029 60 5 17 8 1037 8 2268 l0 2239 -30 44 c-17 24 -33 51 -37 59
-4 8 -70 110 -147 225 -134 202 -141 210 -178 217 -21 4 -961 7 -2089 7
l-2051 1 -27 -26z"/>
</g>
</svg>
